<svg width="57" height="38" viewBox="0 0 57 38" fill="none" xmlns="http://www.w3.org/2000/svg">
<path d="M41.7485 7.64039C42.297 7.3824 42.8819 7.24481 43.4889 7.24481C46.1457 7.24481 48.3638 9.90725 48.8708 13.4469L52.6367 12.3633C51.7739 6.35045 48.0055 1.82361 43.4889 1.82361C42.453 1.82361 41.4609 2.06096 40.5298 2.50126L41.7485 7.64039Z" fill="#9E9E9E"/>
<path d="M36.305 25.8604L38.8521 21.7979C37.7163 20.3773 36.9997 18.303 36.9997 15.9915C36.9997 13.6833 37.7163 11.6091 38.8521 10.1919L36.305 6.12598C34.3745 8.54075 33.1558 12.0666 33.1558 15.9915C33.1558 19.9198 34.3745 23.4456 36.305 25.8604Z" fill="#9E9E9E"/>
<path d="M48.8708 16.5463C48.3614 20.0824 46.1457 22.7414 43.4913 22.7414C42.8819 22.7414 42.2945 22.6038 41.7485 22.3424L40.5298 27.4884C41.4609 27.9253 42.4554 28.1626 43.4913 28.1626C48.0031 28.1626 51.769 23.6427 52.6367 17.6367L48.8708 16.5463Z" fill="#9E9E9E"/>
</svg>
